<?xml version="1.0" standalone="no"?>
<!DOCTYPE svg PUBLIC "-//W3C//DTD SVG 20010904//EN"
 "http://www.w3.org/TR/2001/REC-SVG-20010904/DTD/svg10.dtd">
<svg version="1.0" xmlns="http://www.w3.org/2000/svg"
 width="260.000000pt" height="260.000000pt" viewBox="0 0 260.000000 260.000000"
 preserveAspectRatio="xMidYMid meet">

<g transform="translate(0.000000,260.000000) scale(0.100000,-0.100000)"
fill="#000000" stroke="none">
<path d="M390 2340 l0 -130 -65 0 -65 0 0 -130 0 -130 -130 0 -130 0 0 -390 0
-390 65 0 65 0 0 -65 0 -65 130 0 130 0 0 -130 0 -130 130 0 130 0 0 -65 0
-65 -130 0 -130 0 0 -195 0 -195 195 0 195 0 0 130 0 130 195 0 195 0 0 130 0
130 130 0 130 0 0 -130 0 -130 195 0 195 0 0 -130 0 -130 195 0 195 0 0 195 0
195 -130 0 -130 0 0 65 0 65 130 0 130 0 0 130 0 130 130 0 130 0 0 65 0 65
65 0 65 0 0 390 0 390 -130 0 -130 0 0 130 0 130 -65 0 -65 0 0 130 0 130
-195 0 -195 0 0 -65 0 -65 -195 0 -195 0 0 -130 0 -130 -130 0 -130 0 0 130 0
130 -195 0 -195 0 0 65 0 65 -195 0 -195 0 0 -130z m255 -65 l0 -60 -60 0 -60
0 -3 49 c-5 73 -1 77 65 74 l58 -3 0 -60z m1435 0 l0 -66 -62 3 -63 3 -3 49
c-5 72 -1 76 68 76 l60 0 0 -65z m-1040 -195 l0 -130 260 0 259 0 3 128 3 127
60 0 60 0 3 -127 3 -127 62 -3 62 -3 3 -62 3 -62 62 -3 62 -3 3 -62 3 -63 64
0 65 0 0 -195 0 -195 130 0 131 0 -3 -62 -3 -63 -127 -3 -128 -3 0 -129 0
-130 -130 0 -129 0 -3 -127 -3 -128 -125 0 -125 0 -3 128 -3 127 -259 0 -260
0 0 -130 0 -131 -127 3 -128 3 -3 127 -3 127 -127 3 -127 3 -3 127 -3 127
-127 3 -127 3 0 60 0 60 127 3 128 3 2 192 3 192 62 3 62 3 3 62 3 62 62 3 62
3 3 62 3 62 63 3 62 3 0 123 c0 67 3 126 7 129 3 4 33 7 65 7 l58 0 0 -130z
m-395 -65 l0 -60 -62 -3 -62 -3 -3 -62 -3 -62 -60 0 -60 0 -3 114 c-1 63 0
121 2 128 4 11 33 13 128 11 l123 -3 0 -60z m1560 -65 l0 -125 -62 -3 -63 -3
0 65 0 65 -62 3 -63 3 -3 49 c-5 79 -8 77 130 74 l123 -3 0 -125z m-1950 -390
l0 -255 -60 0 -60 0 -3 245 c-1 134 0 251 3 258 3 9 22 12 62 10 l58 -3 0
-255z m2210 0 l0 -255 -60 0 -60 0 -3 245 c-1 134 0 251 3 258 3 9 22 12 62
10 l58 -3 0 -255z m-1817 -1102 l-3 -63 -60 0 -60 0 -3 63 -3 62 66 0 66 0 -3
-62z m1432 -3 l0 -66 -62 3 -63 3 -3 63 -3 62 66 0 65 0 0 -65z"/>
<path d="M780 1365 l0 -195 130 0 130 0 0 195 0 195 -130 0 -130 0 0 -195z"/>
<path d="M1560 1365 l0 -195 130 0 130 0 0 195 0 195 -130 0 -130 0 0 -195z"/>
</g>
</svg>
